<mxfile host="app.diagrams.net" modified="2021-04-12T00:46:31.078Z" agent="5.0 (Windows)" etag="HvQoEEWgjEG6TtCHwmvC" version="14.5.10" type="github">
  <diagram id="HcDfYess4X8eFtl232bx" name="Page-1">
    <mxGraphModel dx="1038" dy="557" grid="1" gridSize="10" guides="1" tooltips="1" connect="1" arrows="1" fold="1" page="1" pageScale="1" pageWidth="850" pageHeight="1100" math="0" shadow="0">
      <root>
        <mxCell id="0" />
        <mxCell id="1" parent="0" />
        <mxCell id="oo-5A2b1cCx5bDQP1Nm3-9" style="edgeStyle=orthogonalEdgeStyle;rounded=0;orthogonalLoop=1;jettySize=auto;html=1;exitX=0.5;exitY=1;exitDx=0;exitDy=0;entryX=0.5;entryY=0;entryDx=0;entryDy=0;startArrow=classic;startFill=1;" edge="1" parent="1" source="oo-5A2b1cCx5bDQP1Nm3-1" target="oo-5A2b1cCx5bDQP1Nm3-3">
          <mxGeometry relative="1" as="geometry" />
        </mxCell>
        <mxCell id="oo-5A2b1cCx5bDQP1Nm3-1" value="" style="strokeColor=#dddddd;shadow=1;strokeWidth=1;rounded=1;absoluteArcSize=1;arcSize=2;" vertex="1" parent="1">
          <mxGeometry x="190" y="270" width="110" height="60" as="geometry" />
        </mxCell>
        <mxCell id="oo-5A2b1cCx5bDQP1Nm3-2" value="&lt;div align=&quot;center&quot;&gt;Main&lt;/div&gt;&lt;div align=&quot;center&quot;&gt;Server&lt;/div&gt;" style="dashed=0;connectable=0;html=1;fillColor=#5184F3;strokeColor=none;shape=mxgraph.gcp2.hexIcon;prIcon=compute_engine;part=1;labelPosition=right;verticalLabelPosition=middle;align=center;verticalAlign=middle;spacingLeft=5;fontColor=#999999;fontSize=12;" vertex="1" parent="oo-5A2b1cCx5bDQP1Nm3-1">
          <mxGeometry y="0.5" width="44" height="39" relative="1" as="geometry">
            <mxPoint x="5" y="-19.5" as="offset" />
          </mxGeometry>
        </mxCell>
        <mxCell id="oo-5A2b1cCx5bDQP1Nm3-3" value="Database" style="shape=image;verticalLabelPosition=bottom;labelBackgroundColor=#ffffff;verticalAlign=top;aspect=fixed;imageAspect=0;image=data:image/png,iVBORw0KGgoAAAANSUhEUgAAASUAAACsCAMAAAAKcUrhAAAAA3NCSVQICAjb4U/gAAAAh1BMVEX579AAToH+89P3fggARnkITHsST30XUX7////vfBXxfBP99db57s0lVn4sYYkAPXJHcJTAy9XgeR5efZfl4ciqu8r89+bv8vSOorLvdgDe5etBWHKsbEP+/PbIczJ/lKfOzbtyiJylr6zzsXa4vbN8YluMZVT33LJdXGidak5pXmTxjDSTl5X7PuLYAAAAX3pUWHRSYXcgcHJvZmlsZSB0eXBlIEFQUDEAAAiZ40pPzUstykxWKCjKT8vMSeVSAANjEy4TSxNLo0QDAwMLAwgwNDAwNgSSRkC2OVQo0QAFmJibpQGhuVmymSmIzwUAT7oVaBst2IwAABbmSURBVHic7Z0Je6q8EoAFQlAQcMHWrW6t1S7///fdWRIIiz1+toR6n+be5+upLMLbmclkMpn0+n/t363X9QMU7ekBW0QN//XU9QMV7XdQAkBRbwitN+xRG9IvveiXoOqe0tNDREQaGxz5DaQ6pvT00LtIqEDV6xpUl5RIiv6FSElU76HDB+2Q0tOViH6DQHVFCRj9B0RKoqKuOHVD6QZGDKojTp1QeriNEXHqxD51QOmhdzsksk/2H9k+pRuVzWiR9We2TemJ3tN1v8fJtnWyTIktUpTtotvwuMzXtnWyS4m0zXUPIt32bhAnuHKUEd+hXa2zSUlpWzYSMhDBS/QfObnRLhF+OlfqalPrLFJ6Im1zd0AImhTTrKp2LrWIf1QhRdkU6AaBGGWsdRYx2aOkIM3pVbH58hAZgGDAsns5fH7u9/vPz8PLDlxt12S0Fb66LmCrZtE4WaP0xCZpKoKipaNMI9od9isBzYf/+4Laan/YRVqm5iKnC2J4sIzJFiXq3NwsMSCBzu1cUrPdJ8KRQblJ+DD+3JHyDQ+BMI6LPcOzhckSJZakLPaNN43JfrvZZyxElVBBEkChHXJBmsyLp1Ztkx1KT9y5Jb7x+nv0BaLTZwmRlA42aVIT4vMU4eVT40y7mOxQqkFiCxwNnxcD/RHSCVbn4/H1eDyv+Fdu8WLxPIzIzzIxsem38/w2viSqQhJTEKSo97xYDLy1Q4ji97fNxCvaZPP2HhMoZ+0NgBOcH5l2TdsmGy9g40t4WDLKIUkxR0E6fSwG0DxgER83oeeFIfxK/6Gf8MHmCAdXHv6++AC1c3tGHym2rq2OzgIldpSyXFu4I4+eF8zDW58BEcIhSPwDhCkkUoPNasPnhYtntE5bUcDObGGyQEm5jTv1ejIFkxQNWZBYaAARSI4HOMKJE7x6A+/tuN4QKTyqTgRxAusUHVItSwdWOQsWvH1K2r+OdiRNUiCkU6ghESgwQ28rB/CEG8c5wo8J9HXBeT3xwtA4bxGeEJMwe7mejXhT65SK6C2/noIUmowG6xX0aDHoGthyefYGbNMB1Dsoo4nTwORnmlL7Otc6JXMwOxeBeEFICwOS573FDkiZ88Z0JFlrL+D+zVmtPZOTh5jgPnAjY5TX+ku0fP/SRIC7TQ8VSKG3jhlHMIFPvVcniMmKT9ZHcgSkE6894/wFYtoLsTcDCm3rXMuUnkpB7qGLvZsJyZuciVFw3BAK7wi/Trh7A3N+jInTeeKZ0gS4R3GvdOOWDXjLlGoRJHijj9AQJIn2J36dKHHx3p1ATsL8+IAkzQkMcQo/huCi7srxp5aFqV1KT/X5kih3AQDCkUQlZwSUzjJw2EEiFwA4vRHIV9MhoNGvTWFql1J9DiD6LCRlssL3X00UDqK0AkprMkybtTowecfTzoPius+G+7b6Hq1SqosS+JYr9boK0iuj2LwipnAQ87gN2sRx3jd8cC2BXXFdXOrfbAhTq5Tqf/JhDLbY404MLI6UG4/E5eycPf6QwNE/MSxwJnnyNjFi4uu8FfgNtRu3K0xtUmoQpU/wdNC5BrkASZLBxGPzRB43opHqOKrc2aHPERMiZbwhdoqirnOtClOblGpJE27GgwswTR68rIwREgiKg509Cxia87On3YR3OEInEVQeu8Q0PMmqOteqA94mpSqkoTvF6ImzweEsQVosFuhtOyv2lnAYB5RW2jsCcwXqBXYKTpug0oHF8vCUPAZn3r3FN2mRUk3hOCzgvNOgFoa9zydob4DhmAeVKCQXFD5kGL7C8bfTcHh6hsGyg1L4Tph2NWFqUeVapPRQs0osShPwq6HDxxEdjlylKFxGFbgcGCMSby1UQOpFkJiRVjYJU4v2u0VKF0QJw0cwWqPXxEg2SMWzdjTxAHEsKA1OGZxDRPeCde61WZhafJX2bl1VuKG7F2y6sSeTMU5YZgQJ45aK0pEobYrhSHiKgC6HJTPoFGO83Ax7W1G59ijVFG4oVDePLDjQmEh2EKOPYhjH5l2PRk6sa37SI8ljUaSBjah1Du31cu1Rqinci1BWCQyLHOFk3FaILZuXU5gP43LnGyE902FXnegmIEyDUFmmmgPeXi9nj1KEthvNL1kl0DPQJH+k3lTpHFp17Xyjvn1owomPOoegyTIhTL9mv++QUs0PyDARgN4RYCUuYTNMME+dkMuonG+g9KxAIFCEEsVSxh53hdLPrKlca5SqjnehcBu2Su4uNQKOJExsl8mj4v6tiJlPWZjQMm0uqdwdUqrF33AijRTu6ECXhdhGqTHOOBWUtPO9eC5ukqUxks2U/UbNFJ9Vw9Sax9QapV71DfDFME4SxoG/ojnxyIylRYNQOYxBELMvvjgZ12eUyRSNpDZtALPmWLb2Mm3duGaWMI8EPSEg4azrKZXoDNAwDoWpgZKSyE9BTiefWPMF2nqZtihVjbcKB0xCtLzOhN6/lDyJhkkN47TzvTBkRWVaRmvs5cgvbQgMtOZXtkWpFjUh4x2zSxiTlLjzl10WRSopECl5mtLGoIT5qFEve5lTstdHzIYptmq+bVGi+BtGjsDwwg+wy+4UkyeD6fawyzSl1wZKwGea4KkxYDot6PIL5vv+KFUNypajlBjZhh/esMejusAXIt1GFUoUoBwskHSWYsolKpifZNEzjGHIfONQhhJ8/q8okeeNXdyE5roXz5lOHQERi1223pqSmjFBvcRZ8zxhaT5c0OTvIKQz6wPetlyBtijV3CWi9Oah3QUHPAyHUyM1Dlzw4SIPwiEmjOOivxQlRZKgnz0vMMgZT5hSfYxyb7JUff5opSk5nAL4AaqkAYitq3xvTSnAOC4M48BBz5Po0/lJGXig9IaUag7TvcsSO5XrnBIISnYAo4xAcM0Ez4t75xwTGCfKftsSS1/E+92JU3fQUeCR3P8hJb9MCfXJ3W1xncDBdVVMgCbpckyriXeKcImOENOXXoSQckr/n7JUsUs8TBuCs7TbZ0WwEtzFd6dYSSHXgMl154csclUeZmhqXM0u3Tuloo+LOZ8r9LzFB3KCdjKTLNcrQ5xeF/oUMNyeTnDS1nt/75RKnoCrevTCX4Ih22q1CReDZ2gfZmrcwAvXhdo550XIp3h0AbnuK/4BnsG9ewImJXdX8b1XnGYKIhWGi0WJEU0uDV6dwiXYeHBGiPOc6JKryylaib53VgrF3ZsnYIxQ3CzNVBBOj+PQAMXO2Rs0t9CbHDUnicaMp1do/oRFUY/j3F1iyNP9+d4GpWm6cysxAUoUiCfhBUychqLMuPNOufLe8cyTwtRTBhwTcF9SwwG/Y0pgkXDwruNL6j2xSzfm3Roa5QjkLgGBI73L40tSDjHEa4zm7i5ykseXUNVwmsiMVVKqwMS5rHJKnrQZR5dATUXBXeIwzGOV2HWKfGHr3VHSEV3SNHRszLg3JZjCsN65rHLMJOekogTkkx514AS7OBjmyXwm5u5ildphcnkpU1aeQ0GVw17u/UthQk6D18AxtA6NmjGHoqxdHrRs62Xam2liSBxFwr82vZCej8NZEhCIry0Tc1LdHboENNAz5+MYPSYduG26Sy3Px7l6Zc3BVXO7Z54AQTwgTHLl/RPTQHd36BLAAEdPNPlTl9JQKF6QtNrFtTy3m+kQWhIpYjpPgJbkgJS8/kvnBjoljl0Cbz0xJy31iI/medtLOmk3T8DVMTSyHHn60tGhvBIYrcgic+JrTryGIKalYCrnxFhzx+PeO8wT4MW6Oh5LU96kHrESplXI829y8y9MtIjAC9/AjBPUIn8pX3jJeT7tJcO1mL80NBdYxlElF45SJsgR/wcmb/POTiWO7nT6k5ZOU1TvMn+J/cpc5XbKfqOvhKrGdIjX+isLDp0/O+khrrVYecoqkQt20GaPEnzuMheO/Mpoa1iOIkeX0pFp7RIMOWQ8+AIT9P1ku8LJZOJ5KlOcqbsjaSrcXeZVKpXL1yJjYo3K9+Y5Jbma4Krm9T8M+ERBip04XitfyYDO927VD2g/3zvK/977SCULoOzgahK1AMebsGbV5Yk/Cskq4dIeHPep5B1irisU8LzcneZ7cy/3Ikxh2uZ58YMckzI/lfXeaIZIyLjSgD5b6ds8Mu+8a1nhLKxDiaXh0wwDnV4a0pKJlVprCiZZvm+83BMPPejapF51SYt1ZKwiJyiNQ8MXk6OoZYVrd+WXOUgJKGlZCQD5lLz0i40SxY2c1dtEre7C8gJ6SgrkDNhSzI4XobDpPtgTpXYp8YhXCxOtalN+JkoJ2xrKDgw9OknSwkEUI4dGbip1kNyFlQHpM8qXRwWcFN1yTYH211oaf3Qs3+Ku2IJP0Daddbxyk88GOKvXVTE3wEcnktIrvA3xpqIUbp5mwKLU5oqmttftPpQ8SxqguhmLDWHyXjmFktcMKNkopi11TrN3xnWr3ibgK4duXsYjn7q843W7Sphyn0lK7OcySpDgxaieXjxYUDKb46hCOrqoh6qU4+7yTAzO873rNeAsTFGuHT7OC+lXxLmQfMXya+xUyudJH+sMqOMqY0lDyvJzeW6g7Uonbdem4Nh3nqrkk015UZiOxdAETPbUNwqaSeFP14ti4RzXsAB0ZIXyilcyaTeUq5qVOieFFQl41Y2WpriI6C5OEabq+Fx9SCSHLBoWPudGEiRfUu3GoqCXMt1tF81pvdwM59kW75XOqV4gl4mtrF5y3d1eSrDR211EBQjzJAvlAlB8W4dxc327/5o5emIulqU3UwXe8qkmveTERQTioGrDRnlJFI9XoQ7dfMKBRGtkqRxj+7W8Hipl4UCaqOIpFtR1Kgvh2FnUUyK8OIUHLCvpi08XDLcBSQa2CsNZqAs31FO8uTRRQU/3JRD5mnhOk3ejXYAKh4UaOVdeC5N3FKudKu1ZGPhdu/NLRbNRY1CnCxSYRqroa74Q7oNAHrC6qe/7gR/Md7ter1jQu1hTWe9SjVm9dMBC+VMb9SpVzeqihmLg06LunjvEup4DXi7ovqRYKVdMqXSnEGjmFSWsfYqMIrP4aWqxMLOV0qFsmgyLorVuGJ2ew0VIZgk9RXABtmTZfVYo7OXg+POJq6eWCunarF5tpw5t1IAppt4ea+l+LDBfd4tLTbZUPz4ChwATc3HdCSVfUu/3Is2izHOb+w9YqlytejBD6QKZTtXsPggUapybZZFyAcCO4y+94QnEiD2u3ah0rcrGsbRJg60q6Nyzl6oqg3XSSZFN+36wK5QfMQWJa1XYcCf101v6HoWpZH+lrK7ivtxK61F8nbBka4MGe/sOqLfdxYXm6HKK0cW9dkD1apRE0na6Uq1Z3MNCK1LhFypK2fSAFqmCCtdY9rLDiGck8xkrme6VMlrcpMTmrjFqH6uis1KU3JEQyfSwyzIXYNH/aA3qYYpuU1aihF0jXWR1dx2rOxApTLnjoykdBG1YIeJkOt1v59v9dDrCNTq+jv1rSlLslbbZ3anJ7j5ND3rk/yJJ7RSlfN2l5L1QYJCi92fQRbyRkhSJ3gXL8nZWlvf8etJGp3eQIE+qj3ONdZeVpp2FKPFFUmztZHlrNOu77OlN9mCsmyMwAwYVSHpxlyuTgzbvljf86nexF6FeVQDj14P2l9xEXqCUF1Z4Kcp92N+ysYN9LYsNUvP3viRMxjrBvDC8/f0aO9ojtb6RbLNlaiixZH2zRmod7Upc3SfVzWibLwyecON9vyolOjrb57qzHa7LnIZutjvM99MkBgGSMh5Nt4eXrFztpcO9wDvcLf2hrHe0DSGHTuhnZcTS6X7pXe4p33+6doPiTrdK73dMqc+gviYFhx86FCNqXVPqI6joAqkhtKhbKeL2Cyhhe3p4iJhK0XrRw28ghO2XUFLt6QlwYXv6JXhU+12Ufmv7o3RN+6N0TfujdE37o3RN+6N0TfujdE37o3RN+6N0TfujdE37o3RN+6N0TfujdE37o3RN+6N0TfujdE37o3RN+6N0TfujdE37lZQeH788uhzPZuOlrYfB1uuPm1v5QeGD2qX1s8wjjR+WW9OLLmfTJPD9ZDSv34GOz0cixRSC1J/OLr7VxdsXz/HVlTUUvb5oamla/g4/TWo3jHH3icZvwm0nap8mafUr6m+5nKZqTaovUlk/Ph4VZfhx94sLnGb4VQ1PTC2gLx81H+ynDSzG/d5jmjf4/uKXMqXYr38nFtRMm75p5Acyrn8qjbtTq73jLDXzc6RIKuKwTyv5O+m08VU5ZyxtFiY66Ddf2O/jIsby/wMBlMAI6AZvV/xSvriZkpRNf82lCGQTJV8+llv1jFlaZiDTkl48JvVUMNEkE2NVnnHfyOGflGrfMS5Zb6B04dpmSv4oafi4v/fjkd9Eqa6FpbYsnpC1qixsj0EhSDqDN0jnDTdSGWNSNFpN+5RmIq2ZwcdUzG+ilPja3Egw0Li4q+kwvHwaJAnbpwbTBrTz8mFNCK+iJH2jpd+l1Pf9msjPhf94CyUlSmKK3JdzvyImeU3HZIYi8jhOhKz/icwzm4xj/ypKMtlPjbb8LqWtEFUb6Yt9/xZK/HL5339Z7j6Xqm8z5GMuGiE9Gusxm0TtCkp+VQi/SWmZVm0kKOHyJkpb0qgadH1U1O1Q86kzflGWiYbjV1Cqqeo3KYGlrNhI+vQWStMvKaVfdVvlB2AKvjK8l45fuJpLZvw0pbEogwePcnwbJSVLjRZXd+7NvVb9TCn68SUYXcgS/Lf08lO6x+12KRD7JmmaNz99Q6NyOv5WXdHgWXYhS2AGTLFe8qjhpj5OdeC+mM5qInNZgRrvAicuL3G9po8b7Y02+wFKcMhwBqDPe+xfoiSXpVZFka/BhDFcMi8LgVqn8m+FY71N+kqoAr92yZX+kqP/h6C/T2luepZCbPlOjeM4URrGVf/Mj4lZL6CsefRqjV1W5R4i9wDGxT/Lj/0ffe+fofQoiq+cKffpEqXSULumDI+jtPB14M9p6FdwJSVlv0iALjgD/5WS8yOUYNyWd9/6o5s0Dto4MSIjpmt9rSwxAvYXFLGqLetGlsBgahs5TtWL3TSO45vNTVDFxbLZyFTa2ATD9rs2hLqGkl+R+R+gVLz/SJ91O6U+gtIlBwo52F/XxymLPaM2jukmVWfgmhHKthJS/QlKYxU0XObBw29R6ue+U+Fqz9XTf32Zjr0oKeBfqhd1MI7T/6KjeyHyO32PklKdQlvYDboQMcrbvnEpYnUI1YXvjY3DTI/FYOXblFh3DHPN1ffKL1dF9pg2QKpJRie+Nz2exG+dF1GUGyktCxPCA43C8s5EUP0rL4OKLzSvd1BBUOsaO5MlBuQXX30bpccgnw5Y1uyQ8r5F/tEy9tNyiEDJm+mUscqVjH5nskTOwNjwwW+iBL63L+akRjOuk2u+3lipkwjm4Gk9LrfogZZmWWaabDH9MFPDstJjs+u1NZpxVF2wLbXHn6GEMwLmrzdRYiUTySjxdXl58/A81dYYK3wIPQMwK19f6fiVnprCxEJpRLZLc4cNcW8Ymv4QJeiTyg98QxROPaAs6i2X7U6pXJr+RzE/UO0WqSkPwtTMhgIPxtEm0+b/FCWawjTvdM18XKmPmtc6qJrXPE9rL2gMBlVwpUxWeVCp8VVdUirHLC+Mditzu2kFU8nbkQ3ztuNElCd/jQExTx9IUblkVIuAfptSWv2OvMmmPIHSZ3Hp75U25AnUJ+DLDs9yKoQMlNUQcWMOwGyEpRkkKSbYceMGc86xqHrnYzXxX5wZ1J7DfOuGPIGKXRrPLmZxzBoOwUjJvLj0S8Pp41mtVU9ZzkfUkctkf3HEtpxtRzBAi0fb8inqlrUIbu3z+mPM6qdXjv+6/KULMZVu2/8A4z9Qex57RnQAAAAASUVORK5CYII=;" vertex="1" parent="1">
          <mxGeometry x="178.5" y="370" width="133" height="78.08" as="geometry" />
        </mxCell>
        <mxCell id="oo-5A2b1cCx5bDQP1Nm3-8" style="edgeStyle=orthogonalEdgeStyle;rounded=0;orthogonalLoop=1;jettySize=auto;html=1;exitX=0.5;exitY=1;exitDx=0;exitDy=0;entryX=0.5;entryY=0;entryDx=0;entryDy=0;startArrow=classic;startFill=1;" edge="1" parent="1" source="oo-5A2b1cCx5bDQP1Nm3-6" target="oo-5A2b1cCx5bDQP1Nm3-1">
          <mxGeometry relative="1" as="geometry" />
        </mxCell>
        <mxCell id="oo-5A2b1cCx5bDQP1Nm3-6" value="" style="shape=image;verticalLabelPosition=bottom;labelBackgroundColor=#ffffff;verticalAlign=top;aspect=fixed;imageAspect=0;image=data:image/png,iVBORw0KGgoAAAANSUhEUgAAAcQAAAHECAYAAACnX1ofAAAABmJLR0QA/wD/AP+gvaeTAAAgAElEQVR4nO3deWBU5b3/8c9zZjJZIAmrsouggDsYrYCiISuo3NveCr31h0BQb61WTFRAIOxhUzBxq3IrhERob8G2VikhYRKCsrii4g6i7CA7hCQkmTnP7w+xRcsSkpn5njPn8/qzhZm3mswnk2fmDEBERERERERERERERERERERERERERERERERERERERERERERERERERERERERERERERERERERERERERERERERERERERERERERERERERERERERERAGgpAOInCytMO1Sv2k8CQAuwxxTMqzkW+kmIqfiIBIJSCtMa2L6jdFa6bEAok79z7WAfsnjdk0sGlp0XLKPyIk4iEShpKGSFg24Syk9F0Cns/ypvQp6SvOY+AXLhizzhzKPyMk4iEQhklSQ/jOlkQegTz3/ykYNnVU2ouTNYHYR0fc4iERBlrh4YAe335ypNYaiYd9zy12GHsXzRaLg4iASBcmg+YNiqj11Y7QyxwAqupE3Vwvol076o7LX3ft6RUACiehHXNIBRGFHQyV1HjDYF+H/O4D/BFREAG7VBaib3IZ/eNefdz0xrOc9H5aXl+sA3C4RncJniEQBlJw/4EYYOg8afYN5Pwr4AIbK9A5buTaY90PkJBxEogBIKrizvYG6WY04J2yo5X6tHi7PWLkthPdJFJY4iESNMGj+oJjKqNqHlUY2gKYyFbpaafVstRk5g+eLRA3HM0SihvjhnNDtf00BdwHwyMWoCCjc4jZ8w3i+SNRwfIZIdIFSC1NvME0jF8At0i1n8Z4JM2v1iFXrpEOI7ISDSFRPqQtS25ku12RA3wfAkO45D60UXjXrXKPL7luxXTqGyA44iETn0Wfp4Ojo6uOjlMYEALHSPReoSmk852tSk1M+pPyEdAyRlXEQic4hKT9tkFLqGQCXSrc00i4FTPAOL34FCjxfJDoDDiLRGSQtTL9eGcgD0E+6JcDehVKZpcNXbpAOIbIaDiLRadJfSW/r86spgL4X4fsqbK0UXoXyP+4d5t0hHUNkFRxEIgCDlw72HK4+/ltoTAMQJ90TIlVKq6d8ODm7PKP8pHQMkTQOIjne9+eERh6gu0i3COH5IhE4iORgKQUDe2lt5gG4VbrFCpTGO4CR6c0oelu6hUgCB5EcJ7kguSW0axKgHkL4nhM2lFYKi32ma0x5xop90jFEocRBJMdImJ8Q0Syq1YPQmAogXrrH4iqVVnN5vkhOwkEkRzj1fsJcAF2lW2xmpwKyvSOKC6VDiIKNg0hhLaUw5Qptup4GMEC6xebKDW1mrcpY9ZF0CFGwcBApLPGcMChMpbBE1/pGl95f+p10DFGgcRAprPCcMCROKK3mRVSoWUWjimqkY4gChYNIYSOlID1FazwD4ErpFidQwNemVuPLMlYuk24hCgQOItleWn5aD9PAPK3V7dItjqRUGYCs0uErN0mnEDUGB5FsK/3l9BY+t54MqAcBuKV7HM5UCksMpR8vGVayXzqGqCE4iGQ7CfMTIppHtszQUDMAtJLuoR85qhVmRx4z8ni+SHbDQSRbOXVOmAfgKukWOqctWqsJPF8kO+Egki30XzCgu+HS8wDcId1C9aeBUkO7srwZKz6RbiE6Hw4iWdotS+5oHlXrG6sVsgB4pHuoQXyAWugyzIk8XyQr4yCSJSWuTnS7t3tGmlA5Cmgt3UONp4AjpsKcltFxucuGLKuV7iH6KQ4iWU5KQXqKqZGrgKulWygoNkPpx0qHlyyXDiE6HQeRLCO54PZuCv4crTFYuoVCwusydFbJsJJPpUOIAA4iWQDPCR3NB6iFHlNlF40sOiAdQ87GQSQxU6ZMMdZ23jBUA08BuEi6h0QdhsI0f6eaF8r7l/ukY8iZOIgkInXRgGQT+mkA10q3kIUofKU0HvOOKP6HdAo5DweRQio1P/VybRgzeE5I5+E1gczVI4o/kw4h5+AgUkgk5ic2cyPyCa2QCSBSuodsoQ5Q+X5PxITyu984KB1D4Y+DSEF12jnhkwAulu4hW+L5IoUEB5GCJrkgvT+AXGhcJ91C9qeBL6H0o2XDS4qkWyg8cRAp4BJfSb/MbWImzwkpSLwwjUdKRxZ9Lh1C4YWDSAGTVpjWxPQbo7XSYwFESfdQWKsD9Iuqxpzk/Y33mHQMhQcOIjUazwlJ0CEoTG8RHff8siHL/NIxZG8cRGqUlPwBiVrpXAA9pVvI0b5QhsryDltZLB1C9sVBpAZJW5jW0XSpGVpjKPh1RNaxXMPILBtRtFU6hOyHD2R0QXhOSDZQB+gXPW7XxKKhRcelY8g+OIhUPxoqpSD9Hg3MAdBGOoeoHg5CIYfni1RfHEQ6r/6FaTcZJvIA1Vu6hagBNmrorLIRJW9Kh5C1cRDprBIXD+zg9pszeU5IYWK5Mv2PeEd6v5EOIWvigxz9m0HzB8VUe+rGaGWOAVS0dA9RANUC+iWeL9KZcBDpXzRU0qIBdyml5wLoJJ1DFER7FfSU5jHxC3i+SD/gIBIAIDl/wI0wdB40+kq3EIWKAj7QGlmlGcVvSbeQPA6iwyUV3NneQN0snhOSwy33a/VwecbKbdIhJIcPgA41aP6gmMqo2oeVRjaAptI9RPJ0tdLq2Wozcsa6e1+vkK6h0HNJB1CIaaikzgMG+yL8f1cadwHwSCcRWYOKgMItbsM/vOvPu54Y1vOeD8vLy7V0FYUOnyE6SGph6g1+05WnoG+WbiGyPvW+CX/m6hGr1kmXUGhwEB0gdUFqO9Plmgzo+wAY0j1ENqKVwqtmnWt02X0rtkvHUHBxEMNYn6WDo6Orj49SGhMAxEr3ENlYldJ4ztekJqd8SPkJ6RgKDg5imErKTxuklHoWQGfpFqLwoXcrqPHe4cWvQIHni2GGgxhm+i9KSzCgcgH0k24hCmPvaVNnlo0sWS8dQoHDQQwTPCckCjmtFF6F8j/uHebdIR1DjcdBtLnBSwd7Dlcf/y00pgGIk+4hcqAqpdVTlU1i52wYsqxaOoYajoNoY6fOCZ8BcKl0CxFhlwIm8HzRvjiINpS0MP16ZSAXwK3SLUT0b96FUpmlw1dukA6hC8NBtJHEPw5q5aqtmQioh8CrDBFZmVYKi10GxhbfU7xXOobqh4NoAzwnJLKtSqXVXB9Ozi7PKD8pHUPnxkG0uO/PCY08QHeRbiGiBtupgGyeL1obB9GikhcOvBLKfBoK6dItRBQYWus1LujMVRmrPpJuoX/HQbSY5ILkltCuSTwnJApbplJY4jNdY8ozVuyTjqF/4SBaRML8hIhmUa0ehMZUAPHSPUQUdDxftBgOogWcej9hLoCu0i1EFHI7FDDRO6K4UDrE6TiIgtLy03r4lXoawEDpFiISt9r0I2v1vcUfS4c4FQdRQPrL6S18bj0ZUA8CcEv3EJFlmEphia71jS69v/Q76Rin4SCG0GnnhFMANJPuISLLOqG0mhdRoWYVjSqqkY5xCg5iiKQUpKdojTwAV0m3EJFtbNFaTSjLWLlMOsQJOIhB1n/BgO4ut/m01up26RYisimlygBklQ5fuUk6JZxxEIOE54REFGCmUlhiKP14ybCS/dIx4YiDGGAJ8xMimke2zNBQMwC0ku4horBzVCvMjjxm5PF8MbA4iAGUUpCeYmrkKuBq6RYiCnubtVbZPF8MHA5iACQX3N4N2j8PwJ3SLUTkOF6lXY96M1Z8Ih1idxzERrhlyR3No2p9Y7VCFgCPdA8ROZYPUAs9psouGll0QDrGrjiIDZC4OtHt3u4ZaULlKKC1dA8REQAo4IipMKdldFzusiHLaqV77IaDeIFSFw1INmHmAuoa6RYiojNS+EppPOYdUfwP6RQ74SDWU2p+6uXaMGZojcHSLURE9eQ1gczVI4o/kw6xAw7ieSTmJzZzI/IJrZAJIFK6h4joAtUBKt/viZhQfvcbB6VjrIyDeBZTpkwx1nbeMFQDTwG4SLqHiKiRDkNhmr9TzQvl/ct90jFWxEE8g6SFaUnKULkArpVuISIKJA18qbV6bHXGyhXSLVbDQTxN4ivpl7lNzOQ5IRE5gBem8UjpyKLPpUOsgoMIIHFpYlN3ZdTjWuknwHNCInKOOkC/qGrMSd7feI9Jx0hz9CCedk74JICLpXuIiIQcgsL0FtFxzy8bsswvHSPFsYOYXJDeH0AuNK6TbiEisogvoPFoaUbxSukQCY4bxLSFaR1Nl5qhNe6RbiEisqjlGkZm2YiirdIhoeSYQUwrTGti+o3RWumxAKKke4iILM5x54thP4innRPOAdBGuoeIyGYcc74Y1oPYvzDtJsNEHqB6S7cQEdnch4ZhZK0aVrRGOiRYwnIQTzsnHIow/WckIhKyXJn+R7wjvd9IhwRaWI0FzwmDT0GhfVw7dIrviLax7RAXGYsodySi3P/6113tOwmf6UN1XTUq66pwsPIADlcfwYGqgzhQyY9qo8ZpF9sWHeM7oENcB8R6YhEVEQUF4KSvBsdrKrCnYg92HNuJPcf3QENL54arWkC/5HG7JhYNLTouHRMo4TGIGipp0YC7lNJzAXSSzgk3Ue4o9LvkFvTpeBOua3Md4iPjGnxbFbUnsOXQFmw+uBlfHdqCj/dtwvGasPl+oiDwuDzo07E3bu7UFz3bXIsW0S3q9feOnTyGj/ZtwoadG7B2x3qc9J0Mcqkj7VXQU5rHxC8Ih/NF2w9iUkH6z5RGHoA+0i3hpm1sW/zq6sFI7tIf0e7ooNyHqU18fuALvLntLZR9W46jJ48G5X7IflrFtMTgq36J9MvS0NTTtFG3VVVXjdJvSvHnT1/FvhP7AlRIp9kIjczSjOK3pEMaw9aDmLwoPR/AcNj8n8Nq4iPjcG/CSKRflgqXcoXsfv3aj3U71uMvn/8Nn+3n5RWdKiYiBsN73oP/6H4nIlwRAb1tv/ajaEsxFmzMR0VNRUBvm6ABFJSOKM6QDmkoWw9J0qL0/QpoLd0RTpK69MfvfvZbxDXi16KB8Ml3n+Lljfn4bD8/19RJene4CVl9RqFlTMug3s+xmuN47u0XUL4tbF8wKUIDB8pGFNv24/I4iATg+3Oa3930IG6/fIB0yo+s27EeL7z7EvZX7pdOoSByKRfuSxiJu676L6gQPiwt37wCL7z7Iur8dSG7z3Bm90E0pANIXhNPE8xKybHcGALAzZ36YsHP5+O/rvh5SB8oKXQiXR5M7j8Rg6/6Zcj/G9/Z7XbMTJ6OmIiYkN4vWRMH0eGaeJrgqbTZuK6NdT8LOdodjQd/9gBmpkxHfFS8dA4FkMflwYyU6ejbUe7aGb3a9sTc9NkcReIgOpnH5cG0/pPRreXl0in1cmP7GzB/0O9xRase0ikUAIYyMOHWJ9CzjfwHznRr2Q1T+08K+It4yF44iA728E0PWfqZ4Zm0immJeQOexG2db5VOoUYa2Ws4bu7UVzrjn3q17YkHb/yNdAYJ4iA6VFKX/hh4ebp0RoN4XB5MuPUJ3N5toHQKNdAN7RLwq6uHSGf8m0Hd78RtnftJZ5AQDqIDxUbG4qGf/VY6o1EMZSCrzygM6n6HdApdoEh3JDL7jIJS1nyR1CO9HxZ/2xHJ4CA60P0J9zbq8mtWoaAw6qbfIbVrinQKXYCh196NNk0vls44q7jIOGT0GiadQQI4iA7TNrYt0i9Llc4IGKUUHuubiYR210unUD3ERcbh51f8h3TGeQ28fIClR5uCg4PoMEOuuiukl2MLBbfhxqTbJqBriy7SKXQev7zyF0G7Lm4guQ03hlw9WDqDQoyD6CBR7igkd0mSzgiKJp4mmJk8nT/VW5ihDFu9kCulSxIi3ZHSGRRCHEQH6XfJzYiJsP5P5w3VMqYlZqZM5wsiLOqGdgn1/ugmK4iJiLHU20Io+DiIDtK3Y/h/Qlan+E6YmTL9Rx9YTNbQR/BqNA3Vp8NN0gkUQhxEh1BQuNZmb8JvqB6tuiP7tnFhd1Zqd1a4Is2F6tW2J6+h6yAcRIdoH9cuLN5qUV+9O9yEh3s/JJ1Bp8R6mqJjfAfpjAvWLKoZ2sW2lc6gEOEgOkSn+I7SCSF3Z7fbMfS6u6UzCEBHG3/9dbDhkFPDcBAdol1sO+kEEcN73oMBNnplY7hqH2ffr78Oce2lEyhEOIgOERsZK50gQkHh0T6P8NWCwpp6mkonNJid2+nCcBAdwsmvujSUgXH9xqBHq+7SKY5lhzfjn004v1WJfoyD6BBuwy2dICrKHYUZKdNt+cKOcOB22ffrz23wMxKdgoNIjhEfGYdZKTloEd1cOoWILIiDSI7SpmkbzEmdhSaeJtIpRGQxHERynEubd8bU/pMQ4eKvwojoXziI5Eg921yH0Tc/xquQENE/cRDJsZIuTcS9CRnSGURkERxEcrT/vnoIfnnlL6QziMgCOIjkeA/c8D+4rXM/6QwiEsZBJMdTSmFcv7G4vm0v6RQiEsRBJML3Fy6Y0n8iurboIp1CREI4iESnxETEYGbydFzc9CLpFCISwEEkOk3LmJaYmZzj2IuhEzkZB5HoJy5p1gkzk6cj0h0pnUJEIcRBJDqDK1r3wIRbx8FQ/BYhcgp+txOdRd+OvTGq9++kM4goRDiIROdwZ7fb8etrfiWdQUQhwEEkOo+R14/AgMvSpDOIKMg4iETnoaCQ2WcUbmx/g3QKEQURB5GoHtyGG1MSJ+KK1j2kU4goSDiIRPUU6Y5ETvI0dIhrL51CREHAQSS6APGRcZiVkoPm0c2lU4gowDiIRBeobWxbzEieimh3tHQKEQUQB5GoAbq17IZpSZPhNtzSKUQUIBxEogbq1bYnRt/8KBSUdAoRBQAHkagRkrskYUSvYdIZRBQAHESiRvp/1/4av7jiP6UziKiROIhEAfDgjQ+g3yW3SGcQUSNwEIkCQCmFcf3G4JqLr5ZOIaIG4iASBYjH5UFO0lR0aX6pdAoRNQAHkSiAmniaYGZKDi5qcpF0ChFdIA4iUYC1immJmSnTEetpKp1CRBeAg0gUBJ2bXYKpSZPhcXmkU4ionjiIREFy7cXXIPu2cTAUv82I7IDfqURB1LdjHzx804PSGURUDxxEoiAb1P1ODLn6LukMIjoPDiJRCNyfcC/SuqZKZxDROXAQiUJAQeHRvo/ghnYJ0ilEdBYcRKIQcRtuTErMxuUtL5NOIaIz4CAShVBMRDRmp8xA+7j20ilE9BMcRKIQi4+Kx6yUHDSLaiadQkSn4SASCWgX2xYzkqchyh0lnUJEp3AQiYR0b9UNE28bD5dySacQETiIRKJu6vAzZPYZJZ1BROAgEokbeHk6hvUcKp1B5HgcRCILGHbdUPy8x39IZxA5GgeRyCIe/NkDuOWSm6UziByLg0hkEYYyMK7fWFx10VXSKUSOxEEkspBIlwfTkyajY3xH6RQix+EgEllMXGQcnkybhdZNWkunEDkKB5HIglrHtMKslOlo6mkqnULkGBxEIovq3KwzpvafhAhXhHQKkSNwEIks7Lo212LMzY9BKSWdQhT2OIhEFtf/0kT8T8J90hlEYY+DSJa3dvs6VNZWSmeIGnzVL/HLK/9LOoMorHEQyfK+OfotJpZNQZ2/TjpF1AM33o/UrsnSGURhi4NItrDpu08wZ+1caK2lU8QoKDzWNwsJ7a6XTiEKSxxEso3ybWvw3DsvSGeIchtuTE7MRtcWXaVTiMIOB5Fs5fWvlmPZZ3+RzhAVExGDmcnT0KbpxdIpRGGFg0i287/vv4xVW73SGaJaxrTEnLRZiI+Kl04hChscRLIdDY156/Pw/p4PpFNEtY9thxnJ0xDljpJOIQoLHESyJZ/pw7TyHHx9eKt0iqgerboj+7ZxcCmXdAqR7XEQybaq6qox3jsR+058J50iqneHm/BI799JZxDZHgeRbO1w9WGMLRmHoyePSqeIur3bQAy97m7pDCJb4yCS7e2u2IPs0sk46TspnSJqeM97MPDydOkMItviIFJY+PLgV8hZMwt+7ZdOEaOgkNXnEdzcqa90CpEtcRApbLy96x088/bz0hmiDGVg/K1P4KqLrpROIbIdDiKFlRWbi7D44z9KZ4iKdHkwLWkKOsZ3kE4hshUOIoWdgo9eQdGWYukMUfGRcZiVkoMW0c2lU4hsg4NIYUdDI3fDM1i3Y710iqg2TdtgTuosNPE0kU4hsgUOIoUlU5uY+eZsfH7gC+kUUZc274yp/SchwhUhnUJkeRxECls1/lpMLJ2Mncd2SaeI6tnmOoy++TEoKOkUIkvjIFJYO1ZzHOO82ThcfUQ6RVTSpYm4NyFDOoPI0jiIFPb2ndiH7NJJqPZVS6eI+u+rh+CXV/5COoPIsjiI5AibD23BpLKp8Jk+6RRRD9zwP7itcz/pDCJL4iCSY3y49yM8uW4eNLR0ihilFMb1G4vr2/aSTiGyHA4iOUrZN6uxcOMi6QxRbsONKf0nomuLLtIpRJbCQSTH+dMnf8Zfv3hNOkNUTEQMZiZPx8VNL5JOIbIMDiI50ovvzceb29+SzhDVMqYlZibnIDYyVjqFyBI4iORIWmvMfuspfPLdp9Ipoi5p1gkzk6cj0h0pnUIkjoNIjlXrr0V22WR8c+Rb6RRRV7TugQm3joOh+HBAzsbvAHK0ytpKjPdmY3/lfukUUX079sao3r+TziASxUEkxztYdQjjvRNRUXtCOkXUnd1ux6+v+ZV0BpEYDiIRgG1Ht2Ny2VTU+mulU0SNvH4EBlyWJp1BJIKDSHTKpu8+Qc6aWTC1KZ0iRkEhs88o3Nj+BukUopDjIBKdZv3ODXjund9LZ4hyG25MSZyIK1r3kE4hCikOItFPvPHVciz99FXpDFGR7kjkJE9Dh7j20ilEIcNBJDqDP3ywACVbV0lniIqPjMOslBw0j24unUIUEhxEojPQ0Hh6/TN4f88H0imi2sa2xYzkqYh2R0unEAUdB5HoLHymD9PKc7Dl0NfSKaK6teyGaUmT4Tbc0ilEQcVBJDqHqrpqPOGdgN0Ve6RTRPVq2xOjb34UCko6hShoOIhE53Hs5DGMX5WNoyePSqeISu6ShBG9hklnEAUNB5GoHnZX7MGE0kk46TspnSLq/137a/ziiv+UziAKCg4iUT19dXAzpq+ZCb/2S6eIevDGB9DvklukM4gCjoNIdAHe2fUuntnwnHSGKKUUxvUbg2suvlo6hSigOIhEF2jFlpUo/HixdIYoj8uDnKSp6NL8UukUooDhIBI1QOFHi/H3L9+QzhDVxNMEM1Ny0LpJa+kUooDgIBI10Avvvoi1O9ZLZ4hqFdMSs1JyEOtpKp1C1GgcRKIGMrWJWW/Oxmf7P5dOEdW52SWYmjQZHpdHOoWoUTiIRI1Q46/FxLIp2Hlsl3SKqGsvvgZjb3kcSvGN+2RfHESiRjpecxzjvNk4XH1EOkXUbZ1vxaibHpLOIGowDiJRAOw7sQ9jV41DZW2ldIqoQd3vxJCr75LOIGoQDiJRgHx7ZBsmr56GOn+ddIqo+xPuRVrXVOkMogvGQSQKoI/2fYyn1s2D1lo6RYyCwqN9H8EN7RKkU4guCAeRKMDKvi3Hgo350hmi3IYbkxKzcXnLy6RTiOqNg0gUBP/36VL85fO/SWeIiomIxuyUGWgf1146haheOIhEQfLS+/+LNdveks4QFR8Vj1kpOWge1Uw6hei8+BHYREGitcactU+heXQzXHvxNdI5YtrFtkXbbndIZxCdF58hEgVRrb8W2aWTsfXwN9IpoviGfbIDDiJRkFXVVWF86UR8d2K/dAoRnQMHkSgEDlUdwvjSbFTUnpBOIaKz4CAShcj2ozswuWwqav210ilEdAYcRKIQ2vTdJ8hZMxOmNqVTiOgnOIhEIbZ+59t47p0XpDOI6Cc4iEQC3vjqH/i/T5dKZxDRaTiIREIWfJCP4q9XSWcQ0SkcRCIhGhq5G57B+3s+kE4hInAQiUT5TB+mledgy6GvpVOIHI+DSCSsqq4aT3gnYPfx3dIpRI7GQSSygGMnj2GcNxtHqo9IpxA5FgeRyCL2VOxFdtlkVPuqpVOIHImDSGQhXx3cjJw1M+HXfukUIsfhIBJZzDu73sNTa+dBQ0unEDkKB5HIgrzflKHwo8XSGUSOwkEksqhXPl6C1758XTqDyDE4iEQW9vt3X8La7eukM4gcgYNIZGGmNjHrrTn4dP9n0ilEYY+DSGRxNf5aTCqbip3HdkqnEIU1DiKRDRyvOY4xJeNwoOqgdApR2OIgEtnEgaqDGO/NxonaE9IpRGGJg0hkI98e2YbJq6ehzl8nnUIUdjiIRDbz8b5NeHLdXGjNN+4TBRIHkciGVn+7Bn/YuEA6gyiscBCJbGrpp6/iL5//VTqDKGxwEIls7KX3/oBVW0ulM4jCAgeRyMY0NOatz8XGvR9KpxDZHgeRyOZ8pg9TVk/H1sNbpVOIbI2DSBQGquqqML50Er47sV86hci2OIhEYeJQ1SGML81GRU2FdAqRLXEQicLI9qM7MN47ETW+GukUItvhIBKFmS8OfomcN2fB1KZ0CpGtcBCJwtCGnW/j2befl84gshUOIlGYWr55Bf70yZ+lM4hsg4NIFMYWblyElV+XSGcQ2QIHkSiMaWjkbXgW7+1+XzqFyPI4iERhzmf6MKV8Or448KV0CpGlcRCJHKDGV4Ps0knYdXy3dAqRZXEQiRziWM1xjPNm40j1EekUIkviIBI5yN6KvZhQOhnVvmrpFCLL4SASOczmQ5sxvXwm/NovnUJkKRxEIgd6d/d7eHLtPGho6RQiy+AgEjlU6TdlWPRhoXQGkWVwEIkcbMmmP+G1L/4unUFkCRxEIof7/XvzsXb7OukMInEcRCKHM7WJWW/Nwaf7P5NOIRLFQSQi1PhrMbFsCnYc2yGdQiSGg0hEAICKmgqMLRmPA5UHpFOIRHAQieifDlQdxDjvRJyoPSGdQhRyHEQi+pFtR7dh8uppqPPXSacQhRQHkYj+zcf7NmHO2rnQmm/cJ+fgIBLRGfZKZ/AAABIQSURBVJVvW4Pn3nlBOoMoZDiIDuEzfdIJDcZf3cl5/avlePXzv0pniPKZ/PpzCg6iQ5z0nZROaLDqOn4yg6T57/0Bq7aWSmeIqayrkk6gEOEgOkRFTYV0QoNV8BWPojQ0nt6Qhw/3fiSdIqKytlI6gUKEg+gQeyr2SCc02G5+yru4On8dJq+ehq2Ht0qnhNwufv05BgfRIbYf2ymd0CAaGjuP75LOIABVdVUYXzoJ353YL50SUjtt+r1DF46D6BB7ju/B0ZNHpTMu2Paj2/krKws5VHUIY0qewLGTx6RTQuLoyaPYW7FPOoNChIPoEBoam777RDrjgn2492PpBPqJ3RV7MKF0kq1fqFVfG/d+xA9RdhAOooOs37FBOuGCrd9pv2Yn+PLgV5j11pMwtSmdElQb+PXnKBxEB1m7Yz2qbPQWhoNVh/Dxvk3SGXQW63asxzNvPy+dETRVdVVYv/Nt6QwKIQ6ig5z0nUTpN/Z5P9mKzUVh/wzE7v6xeQWWbPqTdEZQrNpaihpfjXQGhRAH0WH+9MlSW1y1pqquCn/74jXpDKqHRR8WYuWWYumMgPKZPiz9bJl0BoUYB9Fh9lfux8qvS6QzzmvZZ3/hG/JtQkMjd8OzeHf3e9IpAbN88wrHvb2EOIiOtGBjvqVfNr+nYi/+/Cl/OrcTv/ZjevlMbD+6Qzql0Y5UH8GiDwulM0gAB9GBKmoq8Nw7v5fOOCNTm5i3Phe1/lrpFLpA1b5qTCmfhoNVh6RTGuWZd57nByQ7FAfRocq3rcHyzSukM/5N4ceL+cpSG9t5bBce+scofHtkm3RKg7z2xd+xdvs66QwSwkF0sBfefdFSF2xes+3NsH3FopMcqjqEx4rHWOprqz4+2LMRL73/B+kMEsRBdLAfLti8+dBm6RR8sGcjZq99ip/QHiaO1xzH2FXjUfjxYlv8N/3y4FeYWj7dFq/ApuDhIDpcVV0VHi9+QvSn+TXb3kJ22WR+EHCYMbWJwo8WI3Pl45Z+sc0HezZiTMkTtrpoBQWHSzqgMS79+WWjFdBEusPu6sw6lG9bg/jIOHRv1S1k96u1xh8/+T88+87z8Jv+kN0vhdaBygNYsaUItf5adG/VDRGuCOmkf3rty9fx5Nq5qOGLuAKl6tvXtj4lHdFQHEQC8P1P8+/sehfbj21HzzbXIcodFdT721+5H9PKZ6Boy8qg3g9Zg6lNfLL/U6zYXARDGejaogvchlus50j1EcxZNxevfvZXXg0psGw9iEo6oDGSFqXvV0Br6Y5wE+tpipHXj8DAywcE/EGrxl+Lv33+Nyze9CdHfFoCnVmspykGXj4Ag7rfgbaxbUN2vz7Th+WbV2DRh4V8a0UQaOBA2Yjii6Q7GoqDSGd1cdOL8KurhyClSzJiIqIbdVsVNRUo2lKMZZ//BUeqjwSokOxOQeHKi65E0qWJuKHd9Wgf1z4o91NVV4VVW0vx50+XYX8lr0ATLBxEQRzE0Ih0R+LmTn3Rt2Nv9GxzHZpFNavX3ztQdRAf7f0Ia3esxzu73uUr+Oi8WjdpjV5teqJX257o0aob2sa2bfBvKY5UH8FH+z7Ghp1vY92O9TwnDAEOoiAOYugpKLSLbYuO8R3RPq4dYj2xiI6Igqk1qn3VqKipwM5ju7Dr+C7sO/GddC7ZnEu50KbpxegQ3wGtY1ohNjIWsZ5YNPHE/OjPnfSdRHXdSVTUVmDX8d3YdWwX9lTs5Yf7hpjdB1HuVDsAFLATHMSQ0tDYXbEHuyv2SKeQA/i1n19vNnLqMdm2bP0+xKM1B3tDIRPAUekWIiIHO6G0muo5bvSVDmkMW//K9AfpL6e38Ln1ZEA9CJs/6yUishFTKSzRtb7RpfeX2v6MJCwG8Qdp+Wk9/Eo9DWCgdAsRUZhbbfqRtfre4o+lQwIlrAbxB0n5aYOUUrkAukq3EBGFmR0KmOgdURx2HxoZloMIAAnzEyKaRbV6EBpTAcRL9xAR2Vyl0mquDydnl2eUh+VVNcJ2EH+QXJDcEto1CVAPweaXqiMiEmAqhSU+0zWmPGPFPumYYAr7QfxBSmHKFdrvyoVCunQLEZEdaK3XuKAzV2WssteHWzaQYwbxB9+fLxp5gO4i3UJEZFE7FZDtHV78CpRzrm5g6/chNkRZRskbLWJirzj1/sXj0j1ERBZSqbSa6tc13bwjigudNIaAA58hni7xj4NauWprJvJ8kYgcTiuFxU44JzwXRw/iD5IWpl+vDOQCuFW6hYgoxN5V2njEm1H0tnSINA7iaU69f/EZAJdKtxARBdkuBUxw2jnhuTjuDPFcvj9fjOvB80UiCmNVSqupVTFxjjwnPBc+QzyL9FfS2/r8agqg7wN/cCAi+9NK4VUo/+PeYd4d0jFWxEE8j/6L0hIMqFwA/aRbiIga6D1t6syykSXrpUOsjINYT6fOF58F0Fm6hYiofvRuBTWe54T1w0G8AH2WDo6Orj4+SmlMABAr3UNEdBZVSuM5X5OanPIh5SekY+yCg9gAqQtS25ku12SeLxKRxWil8KpZ5xpddt+K7dIxdsNBbITUwtQb/KYrT0HfLN1CRE6n3jfhz1w9YtU66RK74iA2loZKWjTgLmXop6BxiXQOETnOHgU99ZZtfV+eMmWKKR1jZxzEABk0f1BMZVTtw0ojG0BT6R4iCne6Wmn1bLUZOWPdva9XSNeEAw5igCUV3NneQN0srTEU/PdLRMGx3K/Vw+UZK7dJh4QTPmAHSXL+gBth6Dxo9JVuIaLwoIAPtEZWaUbxW9It4YiDGEw/nC8qPRdAJ+kcIrItnhOGAAcxBAbNHxRT7akbo5U5BlDR0j1EZBu1gH7J43ZNLBpaxOsrBxkHMYQSFw/s4PabM3m+SET1sNxl6FElw0q+lQ5xCj4oC0gqSP+Z0sgD0Ee6hYgsZ6OGziobUfKmdIjTcBClaKiUgvR7NDAbQFvpHCISdxAKOS2i455fNmSZXzrGiTiIwtIK05qYfmO0VnosgCjpHiIKOZ4TWgQH0SLSFqZ1NF1qBs8XiRxluTL9j3hHer+RDiE+8FpOauHA20zTzAPQU7qFiILmc2WoR73DVhZLh9C/8JMaLGbVsKI1/bb1SVDAcAD7pHuIKKAOQSGzRUzctRxD6+EzRAvj+SJR2KgD9Iuqxpzk/Y33mHQMnRkH0QZSClM6QbtytMY90i1EdMGWaxiZZSOKtkqH0LlxEG0kuSC9P4BcaFwn3UJE5/WFVvqxsuElRdIhVD88Q7SR0uHFq/t92+f6U+eL30n3ENEZHT51TngNx9Be+AzRphKXJjZ1V0Y9rpV+AkCkdA8RfX9O6Ne1k8szyo9Kx9CF4yDaXGp+6uXaMGZojcHSLUQO5jWBzNUjij+TDqGG4yCGiaSFaUnKULkArpVuIXIMha9MUz26OmPlCukUajyeIYaJspElZf229el16nxxv3QPUZg7DIVMf6eaqzmG4YPPEMNQYn5iMzcin9AKmeD5IlEg1QEq3++JmFB+9xsHpWMosDiIYSy54PZuCv4cni8SBYTXZeiskmEln0qHUHBwEB0gddGAZBNmLqCukW4hsqHNUPqx0uEly6VDKLg4iA6RuDrR7d7uGWlC5SigtXQPkdUp4IipMKdldFzusiHLaqV7KPg4iA5zy5I7mkfV+sZqhSwAHukeIgvyAWqhx1TZRSOLDkjHUOhwEB2q/4IB3Q2XngvgTukWIqvQQKmhXVnejBWfSLdQ6HEQHS6lID1Fa+QBuEq6hUjQFq3VhLKMlcukQ0gOB5GQMD8honlkywwNNQNAK+keohA6qhVmRx4z8opGFdVIx5AsDiL9U/rL6S18bj0ZUA8CcEv3EAWRqRSWGEo/XjKshBeyIAAcRDqDtPy0HqaBeVqr26VbiAJOqTIAWaXDV26STiFr4SDSWZ06X3wGwJXSLUSNpYCvTa3G85yQzsYlHUDW9c1rW79pMbDZH6IiYg4B6A0gSrqJqAFOKK1mRVQYd696gM8K6ez4DJHq5bTzxYfAH6TIHkylsETX+kaX3l/KD9Sm8+Ig0gVJKUy5QpuupwEMkG4hOofVph9Zq+8t/lg6hOyDg0gNkpSfNkgplQugq3QL0Wl2KGCid0RxoXQI2Q8HkRosYX5CRLOoVg9CYyqAeOkecrRKpdVcH07OLs8oPykdQ/bEQaRGSy5IbgntmsTzRRJgKoUlPtM1pjxjxT7pGLI3DiIFTErBwF6m6c9VSt0m3ULhT2m8AxiZ3oyit6VbKDxwECngvj9fNPIA3UW6hcLSTgVke4cXvwIFLR1D4cOQDqDwU5ZR8kaLmNgroJAJ4Lh0D4WNSqXVVL+u6eYdUVzIMaRA4zNECqrEPw5q5aqtmcjzRWoErRQWuwyMLb6neK90DIUvDiKFRNLC9OuVgVwAt0q3kK28C6UyS4ev3CAdQuGPg0ghder9i88AuFS6hSxtlwIm8JyQQolniBRS358vxvXg+SKdRZXSampVTBzPCSnk+AyRxKQuSG1nulyTAX0f+MOZ02ml8CqU/3HvMO8O6RhyJg4iieu/KC3BgMoDcIt0C4l4T5s6s2xkyXrpEHI2DiJZxqnzxWcBdJZuoVDQuxXUeJ4TklVwEMlS+iwdHB1dfXyU0pgAIFa6h4KiSmk852tSk1M+pPyEdAzRDziIZElJBXe2V9o3ieeLYUUrhVd9phpTnrFym3QM0U9xEMnSUgtTb/CbrjwFfbN0CzWGel8ZyPIOW7lWuoTobDiIZH0aKmnRgLuUoZ+CxiXSOXRB9ijoqbds6/vylClTTOkYonPhIJJtDJo/KKYyqvZhpZENoKl0D52LrlZaPVttRs5Yd+/rFdI1RPXBQSTbSSq4s72BullaYyj4NWxFy12GHlUyrORb6RCiC8EHE7Kt5PwBN8LQedDoK91CgAI+0BpZpRnFb0m3EDUEB5Hs7YfzRaXnAugkneNQexX0lOYx8QuWDVnml44haigOIoWFQfMHxVR76sZoZY4BVLR0j0PUAvolj9s1sWhoEa9LS7bHQaSwkrh4YAe335zJ88WgW65M/yPekd5vpEOIAoUPGBSW+hem3WSYyANUb+mWMLNRQ2eVjSh5UzqEKNA4iBS+NFRKQfo9GpgDoI10js0dhEJOi+i453lOSOGKg0hhL60wrYnpN0ZrpccCiJLusZk6QL/Ic0JyAg4iOUbawrSOpkvN4PlivS3XMDLLRhRtlQ4hCgU+KJDjpOQPSNRK5wLoKd1iUV8oQ2V5h60slg4hCiV+igA5jjdjZXm/bX0SFDAcwHfSPRZyCAqZLWLiruEYkhPxGSI5Gs8XAZw6J1Q15iTvb7zHpGOIpHAQiQAkvpJ+mdvETK0xWLolxLwwjUdKRxZ9Lh1CJI2DSHSa5IL0/gByoXGddEswaeBLKP1o2fCSIukWIqvgGSLRaUqHF6/u922f68P4fPEwFDLNS2qu4RgS/RifIRKdRWJ+YjM3Ip/QCpkAIqV7GqkOUPl+T8SE8rvfOCgdQ2RFHESi80jNT71cG8YMG58vek0gc/WI4s+kQ4isjINIVE9JC9OSlKFyAVwr3VIvCl+Zpnp0dcbKFdIpRHbAM0SieiobWVLWb1ufXqfOF/dL95zDYShk+jvVXM0xJKo/PkMkaoBbltzRPKrWN9Zi54s+QC30mCq7aGTRAekYIrvhIBI1QnLB7d0U/DkWOF/0ugydVTKs5FPhDiLb4iASBUBKQXqKqZGrgKtDfNebofRjpcNLlof4fonCDgeRKEASVye63ds9I02oHAW0DuZ9KeCIqTCnZXRc7rIhy2qDeV9ETsFBJAqw084XswB4AnzzPCckChIOIlGQ9F8woLvh0vMA3BGI29NAqaFdWd6MFZ8E4vaI6Mc4iERBllKQnqI18gBc1cCb2KK1mlCWsXJZILuI6Mc4iEQhkDA/IaJ5ZMsMDTUDQKt6/rWjWmF25DEjr2hUUU0w+4iIg0gUUukvp7fwufVkQD0IwH2WP2YqhSWG0o+XDCux8gUAiMIKB5FIQFp+Wg/TwDyt1e0/+j+UKgOQVTp85SaZMiLn4iASCTp1vviMAjymVuN5TkhERI41eOlgz+ClgwP99gwiIiIiIiIiIiIiIiIiIiIiIiIiIiIiIiIiIiIiIiIiIiIiIiIiIiIiIiIiIiIiIiIiIiIiIiIiIiIiIiIiIiIiCon/D1QR0OroJ85zAAAAAElFTkSuQmCC;" vertex="1" parent="1">
          <mxGeometry x="209" y="170.00000000000003" width="72" height="72" as="geometry" />
        </mxCell>
        <mxCell id="oo-5A2b1cCx5bDQP1Nm3-12" style="edgeStyle=orthogonalEdgeStyle;rounded=0;orthogonalLoop=1;jettySize=auto;html=1;exitX=0.5;exitY=1;exitDx=0;exitDy=0;exitPerimeter=0;entryX=1;entryY=0.5;entryDx=0;entryDy=0;" edge="1" parent="1" source="oo-5A2b1cCx5bDQP1Nm3-10" target="oo-5A2b1cCx5bDQP1Nm3-6">
          <mxGeometry relative="1" as="geometry" />
        </mxCell>
        <mxCell id="oo-5A2b1cCx5bDQP1Nm3-10" value="" style="html=1;dashed=0;whitespace=wrap;fillColor=#2875E2;strokeColor=#ffffff;points=[[0.005,0.63,0],[0.1,0.2,0],[0.9,0.2,0],[0.5,0,0],[0.995,0.63,0],[0.72,0.99,0],[0.5,1,0],[0.28,0.99,0]];shape=mxgraph.kubernetes.icon;prIcon=api" vertex="1" parent="1">
          <mxGeometry x="300" y="90" width="50" height="48" as="geometry" />
        </mxCell>
        <mxCell id="oo-5A2b1cCx5bDQP1Nm3-13" style="edgeStyle=orthogonalEdgeStyle;rounded=0;orthogonalLoop=1;jettySize=auto;html=1;exitX=0.5;exitY=1;exitDx=0;exitDy=0;exitPerimeter=0;entryX=0;entryY=0.5;entryDx=0;entryDy=0;" edge="1" parent="1" source="oo-5A2b1cCx5bDQP1Nm3-11" target="oo-5A2b1cCx5bDQP1Nm3-6">
          <mxGeometry relative="1" as="geometry" />
        </mxCell>
        <mxCell id="oo-5A2b1cCx5bDQP1Nm3-11" value="" style="html=1;dashed=0;whitespace=wrap;fillColor=#2875E2;strokeColor=#ffffff;points=[[0.005,0.63,0],[0.1,0.2,0],[0.9,0.2,0],[0.5,0,0],[0.995,0.63,0],[0.72,0.99,0],[0.5,1,0],[0.28,0.99,0]];shape=mxgraph.kubernetes.icon;prIcon=api" vertex="1" parent="1">
          <mxGeometry x="128.5" y="90" width="50" height="48" as="geometry" />
        </mxCell>
        <mxCell id="oo-5A2b1cCx5bDQP1Nm3-14" value="Client API" style="text;html=1;align=center;verticalAlign=middle;resizable=0;points=[];autosize=1;strokeColor=none;" vertex="1" parent="1">
          <mxGeometry x="118.5" y="70" width="70" height="20" as="geometry" />
        </mxCell>
        <mxCell id="oo-5A2b1cCx5bDQP1Nm3-15" value="Hardware API" style="text;html=1;align=center;verticalAlign=middle;resizable=0;points=[];autosize=1;strokeColor=none;" vertex="1" parent="1">
          <mxGeometry x="280" y="70" width="90" height="20" as="geometry" />
        </mxCell>
        <mxCell id="oo-5A2b1cCx5bDQP1Nm3-16" value="API Gateway" style="text;html=1;align=center;verticalAlign=middle;resizable=0;points=[];autosize=1;strokeColor=none;" vertex="1" parent="1">
          <mxGeometry x="205" y="150" width="80" height="20" as="geometry" />
        </mxCell>
      </root>
    </mxGraphModel>
  </diagram>
</mxfile>
